<?xml version="1.0" encoding="UTF-8"?>
<svg id="Calque_2" data-name="Calque 2" xmlns="http://www.w3.org/2000/svg" viewBox="0 0 1486.53 4210.64">
  <defs>
    <style>
      .cls-1 {
        fill: none;
        stroke: red;
        stroke-miterlimit: 10;
      }
    </style>
  </defs>
  <g id="Calque_2-2" data-name="Calque 2">
    <path class="cls-1" d="M1011.03.14c37,129,117.43,227.2,169,269l.47.7c76.45,64.36,125.03,160.78,125.03,268.53,0,193.78-157.09,350.87-350.87,350.87s-355.63-156.32-355.63-350.1l.13-.77c0-196.34,159.16-355.5,355.5-355.5s355.5,159.16,355.5,355.5c0,133.36-72.5,248.94-181.13,309.77l-2,1s-652,331.5-652,571c0,544,981,104.61,981,625,0,492-1078.5,263.5-1060,749,16.39,430.19,1090,327.5,1090,819,0,559.5-1092.83,573.5-1486,597"/>
  </g>
</svg>