<?xml version="1.0" encoding="UTF-8"?>
<svg id="Calque_2" data-name="Calque 2" xmlns="http://www.w3.org/2000/svg" viewBox="0 0 1576.22 4273.54">
  <defs>
    <style>
      .cls-1 {
        fill: #242424;
        stroke-width: 0px;
      }
    </style>
  </defs>
  <g id="Calque_2-2" data-name="Calque 2">
    <g>
      <path class="cls-1" d="M1512.08,3389.47c-36.4-51.57-87.26-96.22-155.48-136.49-117.11-69.13-267.88-114.2-413.68-157.79-131.69-39.36-256.08-76.55-347.74-127.7-112.87-63-129.31-122.52-131.01-167.35-3.08-80.8,33-135.67,120.65-183.47,90.85-49.55,223.1-81.08,350.99-111.57,138.3-32.97,281.31-67.06,392.27-126.9,65.39-35.26,114.16-76.14,149.12-124.97,40.49-56.55,61.02-122.91,61.02-197.23,0-145.71-65.3-249.76-194.08-309.26-101.68-46.98-231.12-60.77-356.3-74.1-116.28-12.38-236.51-25.18-318.9-64.12-79.71-37.69-113.72-94.36-113.72-189.52,0-32.96,16.96-71.45,50.39-114.4,33.86-43.48,84.46-90.94,150.4-141.04,112.59-85.56,248.21-163.37,364.74-228.34,14.25-7.94,28.21-15.69,41.8-23.24,19.13-10.61,37.56-20.85,54.87-30.56,8.29-6.17,16.37-12.65,24.23-19.44,7.93-6.84,15.63-14,23.09-21.46,39.01-39.01,69.64-84.45,91.05-135.07,22.18-52.44,33.43-108.11,33.43-165.45s-11.25-113.01-33.43-165.45c-21.41-50.62-52.04-96.06-91.05-135.07-4.61-4.61-9.32-9.11-14.11-13.48-.91-.84-1.82-1.66-2.73-2.47-10.62-8.06-20.78-16.38-30.49-24.94-.01-.02-.02-.03-.03-.03-63.53-56.03-107.59-122.57-131.47-198.56h-155.31c9.14,39.84,22.36,78.32,39.49,115.04-1.95-.03-3.91-.04-5.87-.04-57.34,0-113.01,11.25-165.45,33.43-50.62,21.41-96.06,52.04-135.07,91.05s-69.64,84.45-91.05,135.07c-22.18,52.44-33.43,108.11-33.43,165.45s11.25,113.01,33.43,165.45c21.41,50.62,52.04,96.06,91.05,135.07,39.01,39.01,84.45,69.64,135.07,91.05,6.34,2.68,12.74,5.21,19.17,7.56-52.68,33.32-104.73,68.56-152.69,105-77.34,58.77-135.56,113.83-177.99,168.32-54.44,69.91-82.04,139.41-82.04,206.55,0,153.12,67.16,262.51,199.62,325.13,105.34,49.8,238.42,63.97,367.11,77.67,113.1,12.04,230.04,24.5,309.27,61.11,75,34.65,107,86.42,107,173.09s-40.51,141.19-131.34,190.17c-93.66,50.51-226.95,82.29-355.85,113.02-137.47,32.77-279.61,66.66-388.03,125.79-64.28,35.05-111.7,75.8-144.98,124.57-38.48,56.38-56.56,122.43-53.75,196.31,2.49,65.28,24.37,124.69,65.04,176.58,34.08,43.48,80.77,81.43,142.77,116.03,106.03,59.18,244.23,100.49,377.88,140.44,317.89,95.03,526.26,171.15,526.26,356.09,0,99.42-42.61,182.16-130.27,252.93-80.85,65.29-199.96,119.73-354.02,161.82-289.88,79.2-631.88,97.4-858.19,109.44-30.07,1.6-58.47,3.11-83.74,4.62l8.95,149.73c24.78-1.48,52.94-2.98,82.75-4.57,114.75-6.1,257.56-13.7,412.96-30.25,185.75-19.8,341.71-47.36,476.8-84.27,81.91-22.38,156.21-48.46,220.86-77.52,73.07-32.86,136.28-70.64,187.87-112.29,58.5-47.24,103.87-100.85,134.86-159.35,33.95-64.1,51.17-134.85,51.17-210.29s-21.58-145.23-64.14-205.53ZM689.22,540c0-151.64,123.36-275,275-275,60.09,0,115.72,19.37,161.01,52.19.01,0,.02.01.03.02,8.72,6.32,17.05,13.14,24.95,20.41.01.02.03.03.04.04,54.67,50.28,88.97,122.38,88.97,202.34,0,87.66-41.22,165.87-105.3,216.25-.01,0-.01.01-.02.02-22.79,17.92-48.46,32.32-76.2,42.37-29.19,10.59-60.67,16.36-93.48,16.36-151.64,0-275-123.36-275-275Z"/>
      <path class="cls-1" d="M1150.21,337.62c-8.53-6.65-16.85-13.45-24.95-20.41,8.72,6.32,17.05,13.14,24.95,20.41Z"/>
      <path class="cls-1" d="M1250.82,225.74l-.19.26c-.91-.84-1.82-1.66-2.73-2.47.97.74,1.94,1.48,2.92,2.21Z"/>
    </g>
  </g>
</svg>