<?xml version="1.0" encoding="UTF-8"?>
<svg id="circuitFinal" xmlns="http://www.w3.org/2000/svg" xmlns:xlink="http://www.w3.org/1999/xlink"
  version="1.1" viewBox="0 0 1741 4464.8">
  <defs>
    <style>
      .csl-1 {
      fill: #62930c;
      }

      .csl-1, .csl-2, .csl-3, .csl-4, .csl-5, .csl-6, .csl-7, .csl-8, .csl-9, .csl-10 {
      stroke-width: 0px;
      }

      .csl-2 {
      fill: #282828;
      }

      .csl-11 {
      clip-path: url(#clippath);
      }

      .csl-3 {
      fill: none;
      }

      .csl-4 {
      fill: #507c0b;
      }

      .csl-5 {
      fill: #e80016;
      }

      .csl-6 {
      fill: #768c75;
      }

      .csl-12 {
      clip-path: url(#clippath-1);
      }

      .csl-13 {
      clip-path: url(#clippath-3);
      }

      .csl-14 {
      clip-path: url(#clippath-2);
      }

      .csl-7 {
      fill: #424242;
      }

      .csl-8 {
      fill: #375e01;
      }

      .csl-9 {
      fill: #fff;
      }

      .csl-10 {
      fill: #9ebb9b;
      }
    </style>
    <clipPath id="clippath">
      <path class="csl-3"
        d="M705.1,1625.6s-153.2-57.2-176.4-130.1,72.8-199.9,72.8-199.9c0,0-36.6,96.8-12,174.1,24.6,77.3,115.6,156,115.6,156h0q0,0,0,0Z" />
    </clipPath>
    <clipPath id="clippath-1">
      <path class="csl-3"
        d="M582.7,2972.3s-139.4-85.5-148.3-161.5,109.7-182.3,109.7-182.3c0,0-54.5,88-45.1,168.6s83.6,175.2,83.6,175.2h0Z" />
    </clipPath>
    <clipPath id="clippath-2">
      <path class="csl-3"
        d="M1362.3,3435s104.2,116.9,97.4,202c-6.9,85-150.3,200.8-150.3,200.8,0,0,63.2-110.3,70.5-200.4,7.3-90.1-17.5-202.4-17.5-202.4h0Z" />
    </clipPath>
    <clipPath id="clippath-3">
      <path class="csl-3"
        d="M409.7,2961.2s-152.2-98.9-133.3-242.2c10-76,190-206.7,190-206.7,0,0-103.4,127.5-112.4,208.1s55.8,240.9,55.8,240.9h-.1Z" />
    </clipPath>
  </defs>
  <g id="circuit" data-name="Calque 2-2">
    <g>
      <path class="csl-10"
        d="M1304.1.3s25.9,222.3,150,400.4c124.1,178.1,48.6,518.2-134.9,707.1-183.5,188.9-480.4,167.3-318.5,350.9s658.5,48.6,663.9,296.9,172.7,426.4-5.4,680.1-858.2,81-842,329.3,755.7,215.9,820.5,410.2,156.5,556,32.4,777.3c-124.1,221.3-565.6,381.7-1002.5,479.7S0,4376.1,0,4376.1l.4-465.5s806-23,762.7-211.9S115.5,3326.3,115.5,2851.3s766.5-512.8,739.5-761.1-534.4-134.9-620.7-275.3-91.8-529,32.4-685.5c124.2-156.5,232.1-124.1,183.5-275.3s-194.3-334.7-156.5-518.2C331.5,152.4,585.1.3,585.1.3h719Z" />
      <path class="csl-6"
        d="M1216.5.2s21.7,125.2,113.5,195.4,329.3,210.5,226.7,469.6c-102.6,259.1-744.9,453.4-690.9,680.1s852.8,64.8,804.3,658.5-318.5,556-431.8,593.7-502,5.4-480.4,167.3,977,242.9,923,836.6c-54,593.7-705.7,731-1188.2,749.1s-492.1-14.2-492.1-14.2v-389.8s1302.4-37.6,1102.7-280.4-933.8-215.9-939.2-825.9,977.2-546.8,890.6-782.7-825.9-156.5-831.2-507.4,318.5-404.8,307.7-642.3-253.9-175.5-140.5-553.3S713.4.3,713.4.3h503c0,0,0,0,0-.1Z" />
      <g class="csl-11">
        <g>
          <rect class="csl-5" x="533" y="1605.8" width="229.4" height="41.2"
            transform="translate(-463.8 273.9) rotate(-17.7)" />
          <rect class="csl-9" x="520.8" y="1567.3" width="229.4" height="41.2"
            transform="translate(-452.7 268.4) rotate(-17.7)" />
          <rect class="csl-5" x="508.5" y="1528.8" width="229.4" height="41.2"
            transform="translate(-441.6 262.8) rotate(-17.7)" />
          <rect class="csl-9" x="496.2" y="1490.3" width="229.4" height="41.2"
            transform="translate(-430.4 257.3) rotate(-17.7)" />
          <rect class="csl-5" x="483.8" y="1451.7" width="229.4" height="41.2"
            transform="translate(-419.3 251.7) rotate(-17.7)" />
          <rect class="csl-9" x="471.7" y="1413.2" width="229.4" height="41.2"
            transform="translate(-408.2 246.1) rotate(-17.7)" />
          <rect class="csl-5" x="459.6" y="1374.6" width="229.4" height="41.2"
            transform="translate(-397 240.7) rotate(-17.7)" />
          <rect class="csl-9" x="447.2" y="1336.3" width="229.4" height="41.2"
            transform="translate(-385.9 235.1) rotate(-17.7)" />
          <rect class="csl-5" x="434.9" y="1297.7" width="229.4" height="41.2"
            transform="translate(-374.8 229.5) rotate(-17.7)" />
        </g>
      </g>
      <g class="csl-12">
        <g>
          <rect class="csl-5" x="412.6" y="2944.5" width="229.4" height="41.2"
            transform="translate(-337.3 80.3) rotate(-6.6)" />
          <rect class="csl-9" x="408" y="2904.4" width="229.4" height="41.2"
            transform="translate(-332.7 79.5) rotate(-6.6)" />
          <rect class="csl-5" x="403.3" y="2864.1" width="229.4" height="41.2"
            transform="translate(-328.1 78.7) rotate(-6.6)" />
          <rect class="csl-9" x="398.7" y="2824" width="229.4" height="41.2"
            transform="translate(-323.6 77.9) rotate(-6.6)" />
          <rect class="csl-5" x="393.9" y="2783.8" width="229.4" height="41.2"
            transform="translate(-319 77) rotate(-6.6)" />
          <rect class="csl-9" x="389.2" y="2743.5" width="229.4" height="41.2"
            transform="translate(-314.4 76.2) rotate(-6.6)" />
          <rect class="csl-5" x="384.6" y="2703.4" width="229.4" height="41.2"
            transform="translate(-309.8 75.4) rotate(-6.6)" />
          <rect class="csl-9" x="379.9" y="2663.2" width="229.4" height="41.2"
            transform="translate(-305.2 74.6) rotate(-6.6)" />
          <rect class="csl-5" x="375.1" y="2623.1" width="229.4" height="41.2"
            transform="translate(-300.6 73.8) rotate(-6.6)" />
        </g>
      </g>
      <g class="csl-14">
        <g>
          <rect class="csl-5" x="1362.4" y="3313.4" width="45.9" height="277.4"
            transform="translate(-2166.7 4556.1) rotate(-85.4)" />
          <rect class="csl-9" x="1358.9" y="3358" width="45.9" height="277.4"
            transform="translate(-2214.4 4593.7) rotate(-85.4)" />
          <rect class="csl-5" x="1355.2" y="3403.1" width="45.9" height="277.4"
            transform="translate(-2262.8 4631.5) rotate(-85.4)" />
          <rect class="csl-9" x="1351.5" y="3448.1" width="45.9" height="277.4"
            transform="translate(-2311 4669.2) rotate(-85.4)" />
          <rect class="csl-5" x="1347.9" y="3492.9" width="45.9" height="277.4"
            transform="translate(-2359 4706.8) rotate(-85.4)" />
          <rect class="csl-9" x="1344.4" y="3538.1" width="45.9" height="277.4"
            transform="translate(-2407.3 4744.9) rotate(-85.4)" />
          <rect class="csl-5" x="1340.7" y="3583" width="45.9" height="277.4"
            transform="translate(-2455.4 4782.5) rotate(-85.4)" />
          <rect class="csl-9" x="1337.2" y="3627.9" width="45.9" height="277.4"
            transform="translate(-2503.4 4820.3) rotate(-85.4)" />
          <rect class="csl-5" x="1333.4" y="3672.9" width="45.9" height="277.4"
            transform="translate(-2551.7 4857.9) rotate(-85.4)" />
        </g>
      </g>
      <g class="csl-13">
        <g>
          <rect class="csl-5" x="322.8" y="2774.8" width="41.2" height="229.4"
            transform="translate(-2566.4 2908.7) rotate(-83.6)" />
          <rect class="csl-9" x="327.3" y="2734.5" width="41.2" height="229.4"
            transform="translate(-2522.3 2877.3) rotate(-83.6)" />
          <rect class="csl-5" x="332" y="2694.2" width="41.2" height="229.4"
            transform="translate(-2478.1 2846.2) rotate(-83.6)" />
          <rect class="csl-9" x="336.3" y="2654.2" width="41.2" height="229.4"
            transform="translate(-2434.4 2814.9) rotate(-83.6)" />
          <rect class="csl-5" x="358.6" y="2614" width="41.2" height="229.4"
            transform="translate(-2374.8 2801.4) rotate(-83.6)" />
          <rect class="csl-9" x="345.2" y="2573.8" width="41.2" height="229.4"
            transform="translate(-2346.7 2752.3) rotate(-83.6)" />
          <rect class="csl-5" x="349.9" y="2533.6" width="41.2" height="229.4"
            transform="translate(-2302.6 2721.3) rotate(-83.6)" />
          <rect class="csl-9" x="354.2" y="2493.2" width="41.2" height="229.4"
            transform="translate(-2258.6 2689.7) rotate(-83.6)" />
          <rect class="csl-5" x="358.9" y="2453.1" width="41.2" height="229.4"
            transform="translate(-2214.6 2658.7) rotate(-83.6)" />
        </g>
      </g>
      <g>
        <path class="csl-8"
          d="M1179,1925.6c-10.5,11.1-.5,27.1-11.1,28.1-10.5,1-40.7,7-32.1,24.6,8.5,17.6,44.7,19.1,42.7,31.6-2,12.6,35.2,47.2,40.7,28.6s33.2-29.6,43.7-43.2,12.6-45.2-1-50.2-13.6-15.1-17.6-27.1c-4-12.1-23.1-22.1-32.6-12.6s-22.1,9-32.6,20.1h0Z" />
        <path class="csl-4"
          d="M1241.8,1936.1c-1.7-13.7-30.1-21.3-43.4-18.1s-14,42-31.5,46.2-40.3,8.3-30.5,22.9,61.5,8.2,61.7,18.4c.2,10.3,18.4,38.9,30.3,26.3s-2-35.6,12.9-47.4,31.2-15.1,24.8-24.3c-6.4-9.2-21.9-5.2-24.3-24Z" />
        <path class="csl-1"
          d="M1235.7,1980.5c-.8,16.7-2.3,43.7-13.4,35.2-11.2-8.6-27-28.8-34.1-24.9s-43.4-1.9-26.6-20.7,31.2-9.4,43.1-23.7c11.8-14.3,36.6-5.6,37.5,8.2,1,13.8-5.5,5.9-6.5,25.9Z" />
      </g>
      <g>
        <path class="csl-8"
          d="M699.3,2877.8c-10.5,11.1-.5,27.1-11.1,28.1s-40.7,7-32.1,24.6c8.5,17.6,44.7,19.1,42.7,31.6-2,12.6,35.2,47.2,40.7,28.6,5.5-18.6,33.2-29.6,43.7-43.2,10.5-13.6,12.6-45.2-1-50.2s-13.6-15.1-17.6-27.1c-4-12.1-23.1-22.1-32.6-12.6s-22.1,9-32.6,20.1h0c0,.1,0,0,0,0h0c0,.1,0,0,0,0Z" />
        <path class="csl-4"
          d="M762.1,2888.2c-1.7-13.7-30.1-21.3-43.4-18.1-13.3,3.2-14,42-31.5,46.2s-40.3,8.3-30.5,22.9c9.7,14.6,61.5,8.2,61.7,18.4.2,10.3,18.4,38.9,30.3,26.3s-2-35.6,12.9-47.4,31.2-15.1,24.8-24.3-21.9-5.2-24.3-24h0Z" />
        <path class="csl-1"
          d="M756.1,2932.6c-.8,16.7-2.3,43.7-13.4,35.2-11.2-8.6-27-28.8-34.1-24.9-7.1,3.9-43.4-1.9-26.6-20.7s31.2-9.4,43.1-23.7c11.8-14.3,36.6-5.6,37.5,8.2,1,13.8-5.5,5.9-6.5,25.9Z" />
      </g>
      <g>
        <path class="csl-8"
          d="M1280.2,2100.8c10.5,1.3,15.3-10.8,20.1-5.4s20.6,19.7,26.8,7.8c6.3-11.9-7.7-32.6,0-36.7,7.8-4,11.8-38.8-.8-34.3-12.6,4.5-30-6.3-41.9-6.6-11.8-.3-30.2,11.5-27.5,21.1,2.8,9.6-2.8,13.7-7.9,20.9-5,7.2-2.8,21.9,6.4,23.3,9.2,1.4,14.1,8.6,24.5,9.9h.3Z" />
        <path class="csl-4"
          d="M1260.3,2061.7c-6.9,6.5.5,25.4,7.7,31.5,7.2,6,29.1-9.4,38.5-1.4,9.5,8,21.1,18.9,25.2,7.6s-20.6-37.5-15-41.8,14-26.1,2.2-27.6-19,15.7-31.6,12.3c-12.7-3.4-21.1-11.1-23.6-3.8s6.1,14.3-3.4,23.3h0q0-.1,0-.1Z" />
        <path class="csl-1"
          d="M1287.4,2046.9c9.6-6.4,25.2-16.7,25-6.9-.2,9.8-4.9,26.8,0,29.2,5.1,2.4,16.7,24.9-.6,23.2-17.3-1.6-18-13.5-30.8-14.2s-18.1-18-10.8-24.2c7.3-6.2,5.5.7,17-7h.2q0,0,0,0Z" />
      </g>
      <g>
        <path class="csl-8"
          d="M942.2,3058.6c10.5,1.3,15.3-10.8,20.1-5.4s20.6,19.7,26.8,7.8c6.3-11.9-7.7-32.6,0-36.7,7.8-4,11.8-38.8-.8-34.3s-30-6.3-41.9-6.6c-11.8-.3-30.2,11.5-27.5,21.1,2.8,9.6-2.8,13.7-7.9,20.9-5,7.2-2.8,21.9,6.4,23.3,9.2,1.4,14.1,8.6,24.5,9.9h.3Z" />
        <path class="csl-4"
          d="M922.3,3019.5c-6.9,6.5.5,25.4,7.7,31.5,7.2,6,29.1-9.4,38.5-1.4,9.5,8,21.1,18.9,25.2,7.6s-20.6-37.5-15-41.8,14-26.1,2.2-27.6-19,15.7-31.6,12.3c-12.7-3.4-21.1-11.1-23.6-3.8s6.1,14.3-3.4,23.3h0q0-.1,0-.1Z" />
        <path class="csl-1"
          d="M949.4,3004.7c9.6-6.4,25.2-16.7,25-6.9s-4.9,26.8,0,29.2c5.1,2.4,16.7,24.9-.6,23.2-17.3-1.6-18-13.5-30.8-14.2s-18.1-18-10.8-24.2,5.5.7,17-7h.2q0-.1,0-.1Z" />
      </g>
      <g>
        <path class="csl-8"
          d="M1447.7,1705.7c-4-9.8-16.9-7.9-14.6-14.9s7-27.6-6.5-27.2-24.6,22.8-31.9,18-39.6,8.9-29.5,17.6c10.2,8.7,9.3,29.2,14.9,39.7s24.9,20.6,31.9,13.5,13.3-4.3,22-3.4,20.4-8.3,17.1-17,.5-16.5-3.5-26.2h0Z" />
        <path class="csl-4"
          d="M1423.5,1742.3c9.1,2.8,21.9-13,23.6-22.3s-22.5-20.6-20.2-32.8c2.3-12.2,6.1-27.7-5.9-25.7-11.9,2-22.4,36.4-28.9,33.7s-29.7.7-25.1,11.7,23,8.8,26.3,21.5.7,23.9,8.3,22.4c7.6-1.4,9.4-12.3,22-8.5h-.1Z" />
        <path class="csl-1"
          d="M1397.2,1726c-10.3-5.2-26.9-13.7-18.4-18.3s25.7-8.9,25.3-14.5,13.4-26.8,20.5-10.9c7.1,15.8-2.9,22.3,2.8,33.8,5.7,11.5-6.7,24.6-15.7,21.3-9-3.3-2.2-5.1-14.5-11.4h0Z" />
      </g>
      <g>
        <path class="csl-8"
          d="M1168.4,2188.4c9.5,9.5,23.8,1.1,24.4,10.4s5.2,35.9,20.9,28.8c15.6-7.1,17.8-38.8,28.8-36.8,11,2.1,42.3-29.8,26.1-35.1-16.2-5.3-25.2-29.8-36.9-39.4-11.7-9.6-39.4-12.1-44.2-.3-4.7,11.8-13.6,11.6-24.2,14.8-10.7,3.2-20,19.8-11.8,28.4,8.2,8.6,7.4,19.6,16.9,29.2h0Z" />
        <path class="csl-4"
          d="M1179.1,2133.5c-12,1.2-19.4,26-16.9,37.7s36.6,13.3,39.8,28.8c3.2,15.5,6.4,35.6,19.4,27.4,13.1-8.2,8.6-53.8,17.7-53.7,9,0,34.6-15.3,23.8-26-10.8-10.7-31.3.9-41.4-12.5-10-13.4-12.5-27.7-20.7-22.4-8.2,5.4-5.1,19.1-21.7,20.7h0Z" />
        <path class="csl-1"
          d="M1218,2139.8c14.7,1.1,38.4,3,30.6,12.6s-26,23-22.7,29.4c3.2,6.4-2.7,38-18.8,22.9-16-15.2-7.5-27.7-19.8-38.4s-4.1-32.3,8.1-32.8,5,5,22.6,6.3h0Z" />
      </g>
      <g>
        <path class="csl-8"
          d="M658.2,912.6c-11.7-6.5-23.2,5.5-26.4-3.2s-14.9-33.1-28-21.9c-13.1,11.1-6.4,42.2-17.5,43.3s-32.4,40.3-15.4,40.9c17,.6,32.5,21.7,46.4,27.7s41.2.7,42.5-11.9c1.3-12.6,9.8-14.9,19.2-20.9,9.4-6.1,13.7-24.5,3.5-30.5s-12.6-16.8-24.3-23.4h0q0,0,0,0Z" />
        <path class="csl-4"
          d="M663.1,968.3c11.3-4.5,11.5-30.3,5.8-40.9-5.7-10.6-38.8-2.7-46.2-16.6-7.4-14-15.9-32.4-26.2-20.9s6.6,54.1-2.1,56.5c-8.7,2.4-29,24.2-15.7,31.6,13.3,7.3,29.9-9.5,43.2.6s19.7,23.2,26.1,15.8c6.4-7.4-.4-19.8,15.1-25.9v-.2h0Z" />
        <path class="csl-1"
          d="M624,973c-14.4,3-37.7,7.7-32.9-3.7s18.6-29.3,13.7-34.5c-4.9-5.2-7.9-37.3,11.7-27.2,19.6,10.2,14.9,24.5,29.6,31.4s12.8,29.9,1.3,33.7c-11.6,3.9-6.2-3.4-23.5.2h0q0,0,0,0Z" />
      </g>
      <g>
        <path class="csl-8"
          d="M931.7,1606.4c9.5,9.5,23.8,1.1,24.4,10.4s5.2,35.9,20.9,28.8c15.6-7.1,17.8-38.8,28.8-36.8,11,2.1,42.3-29.8,26.1-35.1-16.2-5.3-25.2-29.8-36.9-39.4s-39.4-12.1-44.2-.3c-4.7,11.8-13.6,11.6-24.2,14.8-10.7,3.2-20,19.8-11.8,28.4s7.4,19.6,16.9,29.2Z" />
        <path class="csl-4"
          d="M942.3,1551.5c-12,1.2-19.4,26-16.9,37.7s36.6,13.3,39.8,28.8,6.4,35.6,19.4,27.4c13.1-8.2,8.6-53.8,17.7-53.7,9,0,34.6-15.3,23.8-26-10.8-10.7-31.3.9-41.4-12.5-10-13.4-12.5-27.7-20.7-22.4-8.2,5.4-5.1,19.1-21.7,20.7h0Z" />
        <path class="csl-1"
          d="M981.2,1557.8c14.7,1.1,38.4,3,30.6,12.6s-26,23-22.7,29.4c3.2,6.4-2.7,38-18.8,22.9-16-15.2-7.5-27.7-19.8-38.4s-4.1-32.3,8.1-32.8c12.2-.5,5,5,22.6,6.3h0Z" />
      </g>
      <g>
        <path class="csl-8"
          d="M1101.9,1892.4c7.6,1.6,12-18.4,18.1-17s0,18.8,7.1,27.6c7.1,8.9,19.1,33.3,5.7,33.7-13.5.4-25.5-9.9-34.4-.4-8.9,9.6-26.2,2.1-26.6-8.5s8.9-26.6,5-33.7-1.4-25.2,9.2-23.4c10.6,1.8,11,6,15.9,5.3s-6.7,14.9,0,16.3h0q0,0,0,0Z" />
        <path class="csl-4"
          d="M1090.5,1885.3c6.1-4.5,23-13.5,23-3.2s-3.2,17.4,4.3,22.7,20.5,18.8,10.3,21.6-17-11.3-22.7-8.9c-5.7,2.5-20.2,14.2-25.2,3.9-5-10.3,5.3-26.9,1.1-29.4s5-3.5,9.2-6.7h0Z" />
        <path class="csl-1"
          d="M1106.7,1912.5c2.3,3.7,6,12.4-.7,13.3s-12.3-8.1-15.9-6.6-14.9-.6-10.9-5.3c4-4.7,12.5-14.3,12.9-19.9s10.3-16.7,14.9-11.9.3,10.4,2.7,12.2,15.5,0,13.2,4.5-14.1,7.4-15.6,10.4-.6,3.3-.6,3.3Z" />
      </g>
      <g>
        <path class="csl-8"
          d="M846,2965.6c7.6,1.6,12-18.4,18.1-17s0,18.8,7.1,27.6,19.1,33.3,5.7,33.7-25.5-9.9-34.4-.4c-8.9,9.6-26.2,2.1-26.6-8.5-.4-10.6,8.9-26.6,5-33.7-3.9-7.1-1.4-25.2,9.2-23.4,10.6,1.8,11,6,15.9,5.3s-6.7,14.9,0,16.3h0c0,.1,0,0,0,0h0c0,.1,0,0,0,0Z" />
        <path class="csl-4"
          d="M834.7,2958.5c6.1-4.5,23-13.5,23-3.2s-3.2,17.4,4.3,22.7,20.5,18.8,10.3,21.6-17-11.3-22.7-8.9c-5.7,2.5-20.2,14.2-25.2,3.9s5.3-26.9,1.1-29.4,5-3.5,9.2-6.7h0Z" />
        <path class="csl-1"
          d="M850.8,2985.7c2.3,3.7,6,12.4-.7,13.3-6.8.8-12.3-8.1-15.9-6.6s-14.9-.6-10.9-5.3,12.5-14.3,12.9-19.9c.4-5.6,10.3-16.7,14.9-11.9s.3,10.4,2.7,12.2,15.5,0,13.2,4.5-14.1,7.4-15.6,10.4-.6,3.3-.6,3.3h0Z" />
      </g>
      <g>
        <path class="csl-8"
          d="M545.5,1040.2c7.6,1.6,12-18.4,18.1-17s0,18.8,7.1,27.6c7.1,8.9,19.1,33.3,5.7,33.7-13.5.4-25.5-9.9-34.4-.4-8.9,9.6-26.2,2.1-26.6-8.5-.4-10.6,8.9-26.6,5-33.7s-1.4-25.2,9.2-23.4c10.6,1.8,11,6,15.9,5.3s-6.7,14.9,0,16.3h0Z" />
        <path class="csl-4"
          d="M534.2,1033.1c6.1-4.5,23-13.5,23-3.2s-3.2,17.4,4.3,22.7,20.5,18.8,10.3,21.6-17-11.3-22.7-8.9c-5.7,2.5-20.2,14.2-25.2,3.9-5-10.3,5.3-26.9,1.1-29.4s5-3.5,9.2-6.7h0Z" />
        <path class="csl-1"
          d="M550.3,1060.4c2.3,3.7,6,12.4-.7,13.3s-12.3-8.1-15.9-6.6-14.9-.6-10.9-5.3c4-4.7,12.5-14.3,12.9-19.9s10.3-16.7,14.9-11.9.3,10.4,2.7,12.2,15.5,0,13.2,4.5-14.1,7.4-15.6,10.4-.6,3.3-.6,3.3h0Z" />
      </g>
      <g>
        <path class="csl-8"
          d="M1118.6,2251.5c-7.3,2.6-.6,22-6.5,24s-9.8-16-20.5-19.8-33.7-18.3-22.5-25.7c11.3-7.4,26.9-4.9,29.4-17.7s21.2-15.6,27.1-6.7c5.9,8.9,6.4,27.3,13.4,31.3s14.4,20.7,4.4,24.7-12.5.6-16.4,3.8-2.1-16.2-8.5-13.9h0Z" />
        <path class="csl-4"
          d="M1132,2251.6c-2.8,7.1-12.5,23.5-17.9,14.8s-6.4-16.5-15.5-17.1-27.3-5.2-20.1-13,20.4.7,23.9-4.3c3.5-5.1,9.8-22.7,19.4-16.5,9.6,6.1,9.6,25.7,14.5,25.6s-2.4,5.6-4.3,10.6h0Z" />
        <path class="csl-1"
          d="M1103.9,2236.9c-3.9-2-11.7-7.4-6.3-11.7s14.8.5,17-2.7,13-7.3,12.1-1.2-3.1,18.8-.5,23.7c2.6,5,0,19.7-6.4,18s-5.7-8.7-8.7-8.9-13.2,8.2-13.6,3.1c-.4-5.1,8.1-13.7,7.8-17.1s-1.3-3.1-1.3-3.1h0Z" />
      </g>
      <g>
        <path class="csl-2"
          d="M379,1392.2c-1.5-3.5-3.6-6.6-6.3-9.3-2.7-2.7-5.8-4.8-9.3-6.3-3.6-1.5-7.4-2.3-11.4-2.3s-7.8.8-11.4,2.3c-3.5,1.5-6.6,3.6-9.3,6.3s-4.8,5.8-6.3,9.3c-1.5,3.6-2.3,7.4-2.3,11.4s.8,7.8,2.3,11.4c1.5,3.5,3.6,6.6,6.3,9.3,2.7,2.7,5.8,4.8,9.3,6.3,3.6,1.5,7.4,2.3,11.4,2.3s7.8-.8,11.4-2.3c3.5-1.5,6.6-3.6,9.3-6.3s4.8-5.8,6.3-9.3c1.5-3.6,2.3-7.4,2.3-11.4s-.8-7.8-2.3-11.4ZM373,1403.6c0,5.6-2.2,10.8-6.1,14.8-3.9,3.9-9.2,6.1-14.8,6.1s-10.8-2.2-14.8-6.1c-3.9-3.9-6.1-9.2-6.1-14.8s2.2-10.8,6.1-14.8c3.9-3.9,9.2-6.1,14.8-6.1s10.8,2.2,14.8,6.1c3.9,3.9,6.1,9.2,6.1,14.8Z" />
        <g>
          <path class="csl-2"
            d="M352.2,1423.7c11.1,0,20.1-9,20.1-20.1s-9-20.1-20.1-20.1-20.1,9-20.1,20.1,9,20.1,20.1,20.1ZM344.3,1418.3c-1-.5-1.9-1.1-2.8-1.8-.2-.2-.3-.6,0-.8l5.5-5c.2-.2.5,0,.4.3l-2.5,7c-.1.3-.5.4-.7.3h.1ZM350.5,1420.2c-1.1,0-2.2-.3-3.3-.6-.3,0-.5-.4-.3-.7l3.2-6.7c.1-.2.5-.2.5,0l.4,7.4c0,.3-.3.6-.6.6h.1,0ZM357,1419.5c-1.1.3-2.1.5-3.3.6-.3,0-.6-.2-.6-.6l.4-7.4c0-.3.4-.3.5,0l3.2,6.7c.1.3,0,.6-.3.7h.1,0ZM362.7,1416.4c-.9.7-1.8,1.3-2.8,1.8-.3.2-.6,0-.7-.3l-2.5-7c0-.3.2-.5.4-.3l5.5,5c.2.2.2.6,0,.8h.1ZM366.9,1411.4c-.5,1-1.1,1.9-1.8,2.8-.2.2-.6.3-.8,0l-5-5.5c-.2-.2,0-.5.3-.4l7,2.5c.3,0,.4.5.3.7h0ZM368.1,1408.4c0,.3-.4.5-.7.3l-6.7-3.2c-.2,0-.2-.5,0-.5l7.4-.4c.3,0,.6.3.6.6-.1,1.1-.3,2.2-.6,3.3h0q0,0,0-.1ZM368.1,1398.7c.3,1.1.5,2.1.6,3.3,0,.3-.2.6-.6.6l-7.4-.4c-.3,0-.3-.4,0-.5l6.7-3.2c.3,0,.6,0,.7.3h0q0,0,0-.1ZM365,1393c.7.9,1.3,1.8,1.8,2.8.2.3,0,.6-.3.7l-7,2.5c-.3,0-.5-.2-.3-.4l5-5.5c.2-.2.6-.2.8,0h0ZM360,1388.9c1,.5,1.9,1.1,2.8,1.8.2.2.3.6,0,.8l-5.5,5c-.2.2-.5,0-.4-.3l2.5-7c.1-.3.5-.4.7-.3h-.1ZM353.8,1387c1.1,0,2.2.3,3.3.6.3,0,.5.4.3.7l-3.2,6.7c-.1.2-.5.2-.5,0l-.4-7.4c0-.3.3-.6.6-.6h-.1,0ZM357.4,1403.6c0,2.9-2.4,5.3-5.3,5.3s-5.3-2.4-5.3-5.3,2.4-5.3,5.3-5.3,5.3,2.4,5.3,5.3ZM347.3,1387.6c1.1-.3,2.1-.5,3.3-.6.3,0,.6.2.6.6l-.4,7.4c0,.3-.4.3-.5,0l-3.2-6.7c-.1-.3,0-.6.3-.7h-.1,0ZM341.6,1390.7c.9-.7,1.8-1.3,2.8-1.8.3-.2.6,0,.7.3l2.5,7c0,.3-.2.5-.4.3l-5.5-5c-.2-.2-.2-.6,0-.8h-.1ZM337.4,1395.7c.5-1,1.1-1.9,1.8-2.8.2-.2.6-.3.8,0l5,5.5c.2.2,0,.5-.3.4l-7-2.5c-.3,0-.4-.5-.3-.7h0ZM336.2,1398.7c0-.3.4-.5.7-.3l6.7,3.2c.2,0,.2.5,0,.5l-7.4.4c-.3,0-.6-.3-.6-.6.1-1.1.3-2.2.6-3.3h0q0,0,0,.1ZM336.2,1408.4c-.3-1.1-.5-2.1-.6-3.3,0-.3.2-.6.6-.6l7.4.4c.3,0,.3.4,0,.5l-6.7,3.2c-.3,0-.6,0-.7-.3h0q0,0,0,.1ZM337.7,1410.7l7-2.5c.3,0,.5.2.3.4l-5,5.5c-.2.2-.6.2-.8,0-.7-.9-1.3-1.8-1.8-2.8-.2-.3,0-.6.3-.7h0Z" />
          <path class="csl-2" d="M352.2,1405.5c1.1,0,2-.9,2-2s-.9-2-2-2-2,.9-2,2,.9,2,2,2Z" />
          <path class="csl-2"
            d="M351.8,1400.8c.5.2,1,0,1.3-.5.2-.5,0-1-.5-1.3-.5-.2-1,0-1.3.5-.2.5,0,1,.5,1.3Z" />
          <path class="csl-2"
            d="M352.6,1406.3c-.5-.2-1,0-1.3.5-.2.5,0,1,.5,1.3.5.2,1,0,1.3-.5.2-.5,0-1-.5-1.3Z" />
          <path class="csl-2"
            d="M355.4,1404.4c.5.2,1,0,1.3-.5.2-.5,0-1-.5-1.3-.5-.2-1,0-1.3.5-.2.5,0,1,.5,1.3Z" />
          <path class="csl-2"
            d="M347.7,1403.2c-.2.5,0,1,.5,1.3.5.2,1,0,1.3-.5.2-.5,0-1-.5-1.3-.5-.2-1,0-1.3.5Z" />
        </g>
      </g>
      <g>
        <path class="csl-2"
          d="M351.1,1452.7c-1.5-3.5-3.6-6.6-6.3-9.3-2.7-2.7-5.8-4.8-9.3-6.3-3.6-1.5-7.4-2.3-11.4-2.3s-7.8.8-11.4,2.3c-3.5,1.5-6.6,3.6-9.3,6.3s-4.8,5.8-6.3,9.3c-1.5,3.6-2.3,7.4-2.3,11.4s.8,7.8,2.3,11.4c1.5,3.5,3.6,6.6,6.3,9.3,2.7,2.7,5.8,4.8,9.3,6.3,3.6,1.5,7.4,2.3,11.4,2.3s7.8-.8,11.4-2.3c3.5-1.5,6.6-3.6,9.3-6.3s4.8-5.8,6.3-9.3c1.5-3.6,2.3-7.4,2.3-11.4s-.8-7.8-2.3-11.4ZM345.1,1464c0,5.6-2.2,10.8-6.1,14.8-3.9,3.9-9.2,6.1-14.8,6.1s-10.8-2.2-14.8-6.1c-3.9-3.9-6.1-9.2-6.1-14.8s2.2-10.8,6.1-14.8c3.9-3.9,9.2-6.1,14.8-6.1s10.8,2.2,14.8,6.1c3.9,3.9,6.1,9.2,6.1,14.8Z" />
        <g>
          <path class="csl-2"
            d="M324.2,1484.1c11.1,0,20.1-9,20.1-20.1s-9-20.1-20.1-20.1-20.1,9-20.1,20.1,9,20.1,20.1,20.1ZM316.4,1478.7c-1-.5-1.9-1.1-2.8-1.8-.2-.2-.3-.6,0-.8l5.5-5c.2-.2.5,0,.4.3l-2.5,7c-.1.3-.5.4-.7.3h.1ZM322.6,1480.6c-1.1,0-2.2-.3-3.3-.6-.3,0-.5-.4-.3-.7l3.2-6.7c.1-.2.5-.2.5,0l.4,7.4c0,.3-.3.6-.6.6h.1,0ZM329.1,1480c-1.1.3-2.1.5-3.3.6-.3,0-.6-.2-.6-.6l.4-7.4c0-.3.4-.3.5,0l3.2,6.7c.1.3,0,.6-.3.7h.1,0ZM334.8,1476.9c-.9.7-1.8,1.3-2.8,1.8-.3.2-.6,0-.7-.3l-2.5-7c0-.3.2-.5.4-.3l5.5,5c.2.2.2.6,0,.8h.1ZM339,1471.9c-.5,1-1.1,1.9-1.8,2.8-.2.2-.6.3-.8,0l-5-5.5c-.2-.2,0-.5.3-.4l7,2.5c.3,0,.4.5.3.7h0ZM340.2,1468.9c0,.3-.4.5-.7.3l-6.7-3.2c-.2,0-.2-.5,0-.5l7.4-.4c.3,0,.6.3.6.6-.1,1.1-.3,2.2-.6,3.3h0q0,0,0-.1ZM340.2,1459.2c.3,1.1.5,2.1.6,3.3,0,.3-.2.6-.6.6l-7.4-.4c-.3,0-.3-.4,0-.5l6.7-3.2c.3,0,.6,0,.7.3h0q0,0,0-.1ZM337.1,1453.5c.7.9,1.3,1.8,1.8,2.8.2.3,0,.6-.3.7l-7,2.5c-.3,0-.5-.2-.3-.4l5-5.5c.2-.2.6-.2.8,0h0ZM332.1,1449.3c1,.5,1.9,1.1,2.8,1.8.2.2.3.6,0,.8l-5.5,5c-.2.2-.5,0-.4-.3l2.5-7c.1-.3.5-.4.7-.3h-.1ZM325.9,1447.5c1.1,0,2.2.3,3.3.6.3,0,.5.4.3.7l-3.2,6.7c-.1.2-.5.2-.5,0l-.4-7.4c0-.3.3-.6.6-.6h-.1,0ZM329.5,1464c0,2.9-2.4,5.3-5.3,5.3s-5.3-2.4-5.3-5.3,2.4-5.3,5.3-5.3,5.3,2.4,5.3,5.3ZM319.4,1448.1c1.1-.3,2.1-.5,3.3-.6.3,0,.6.2.6.6l-.4,7.4c0,.3-.4.3-.5,0l-3.2-6.7c-.1-.3,0-.6.3-.7h-.1,0ZM313.7,1451.2c.9-.7,1.8-1.3,2.8-1.8.3-.2.6,0,.7.3l2.5,7c0,.3-.2.5-.4.3l-5.5-5c-.2-.2-.2-.6,0-.8h-.1ZM309.5,1456.2c.5-1,1.1-1.9,1.8-2.8.2-.2.6-.3.8,0l5,5.5c.2.2,0,.5-.3.4l-7-2.5c-.3,0-.4-.5-.3-.7h0ZM308.3,1459.2c0-.3.4-.5.7-.3l6.7,3.2c.2,0,.2.5,0,.5l-7.4.4c-.3,0-.6-.3-.6-.6.1-1.1.3-2.2.6-3.3h0q0,0,0,.1ZM308.3,1468.9c-.3-1.1-.5-2.1-.6-3.3,0-.3.2-.6.6-.6l7.4.4c.3,0,.3.4,0,.5l-6.7,3.2c-.3,0-.6,0-.7-.3h0q0,0,0,.1ZM309.8,1471.1l7-2.5c.3,0,.5.2.3.4l-5,5.5c-.2.2-.6.2-.8,0-.7-.9-1.3-1.8-1.8-2.8-.2-.3,0-.6.3-.7h0Z" />
          <path class="csl-2" d="M324.2,1466c1.1,0,2-.9,2-2s-.9-2-2-2-2,.9-2,2,.9,2,2,2Z" />
          <path class="csl-2"
            d="M323.9,1461.3c.5.2,1,0,1.3-.5.2-.5,0-1-.5-1.3-.5-.2-1,0-1.3.5-.2.5,0,1,.5,1.3Z" />
          <path class="csl-2"
            d="M324.6,1466.8c-.5-.2-1,0-1.3.5-.2.5,0,1,.5,1.3.5.2,1,0,1.3-.5.2-.5,0-1-.5-1.3Z" />
          <path class="csl-2"
            d="M327.5,1464.9c.5.2,1,0,1.3-.5.2-.5,0-1-.5-1.3-.5-.2-1,0-1.3.5-.2.5,0,1,.5,1.3Z" />
          <path class="csl-2"
            d="M319.8,1463.6c-.2.5,0,1,.5,1.3.5.2,1,0,1.3-.5.2-.5,0-1-.5-1.3-.5-.2-1,0-1.3.5Z" />
        </g>
      </g>
      <g>
        <path class="csl-2"
          d="M1305.7,3451.5c-1.5-3.5-3.6-6.6-6.3-9.3-2.7-2.7-5.8-4.8-9.3-6.3-3.6-1.5-7.4-2.3-11.4-2.3s-7.8.8-11.4,2.3c-3.5,1.5-6.6,3.6-9.3,6.3s-4.8,5.8-6.3,9.3c-1.5,3.6-2.3,7.4-2.3,11.4s.8,7.8,2.3,11.4c1.5,3.5,3.6,6.6,6.3,9.3,2.7,2.7,5.8,4.8,9.3,6.3,3.6,1.5,7.4,2.3,11.4,2.3s7.8-.8,11.4-2.3c3.5-1.5,6.6-3.6,9.3-6.3s4.8-5.8,6.3-9.3c1.5-3.6,2.3-7.4,2.3-11.4s-.8-7.8-2.3-11.4ZM1299.7,3462.8c0,5.6-2.2,10.8-6.1,14.8s-9.2,6.1-14.8,6.1-10.8-2.2-14.8-6.1-6.1-9.2-6.1-14.8,2.2-10.8,6.1-14.8c3.9-3.9,9.2-6.1,14.8-6.1s10.8,2.2,14.8,6.1c3.9,3.9,6.1,9.2,6.1,14.8Z" />
        <g>
          <path class="csl-2"
            d="M1278.8,3482.9c11.1,0,20.1-9,20.1-20.1s-9-20.1-20.1-20.1-20.1,9-20.1,20.1,9,20.1,20.1,20.1ZM1271,3477.5c-1-.5-1.9-1.1-2.8-1.8-.2-.2-.3-.6,0-.8l5.5-5c.2-.2.5,0,.4.3l-2.5,7c0,.3-.5.4-.7.3h0ZM1277.2,3479.4c-1.1-.1-2.2-.3-3.3-.6-.3,0-.5-.4-.3-.7l3.2-6.7c0-.2.5-.2.5,0l.4,7.4c0,.3-.3.6-.6.6h.1ZM1283.7,3478.8c-1.1.3-2.1.5-3.3.6-.3,0-.6-.2-.6-.6l.4-7.4c0-.3.4-.3.5,0l3.2,6.7c0,.3,0,.6-.3.7h.1ZM1289.4,3475.7c-.9.7-1.8,1.3-2.8,1.8-.3.2-.6,0-.7-.3l-2.5-7c0-.3.2-.5.4-.3l5.5,5c.2.2.2.6,0,.8h0ZM1293.5,3470.7c-.5,1-1.1,1.9-1.8,2.8-.2.2-.6.3-.8,0l-5-5.5c-.2-.2,0-.5.3-.4l7,2.5c.3.1.4.5.3.7h0ZM1294.8,3467.7c0,.3-.4.5-.7.3l-6.7-3.2c-.2-.1-.2-.5,0-.5l7.4-.4c.3,0,.6.3.6.6,0,1.1-.3,2.2-.6,3.3h0c0-.1,0-.1,0-.1ZM1294.8,3458c.3,1.1.5,2.1.6,3.3,0,.3-.2.6-.6.6l-7.4-.4c-.3,0-.3-.4,0-.5l6.7-3.2c.3-.1.6,0,.7.3h0c0-.1,0-.1,0-.1ZM1291.7,3452.2c.7.9,1.3,1.8,1.8,2.8.2.3,0,.6-.3.7l-7,2.5c-.3,0-.5-.2-.3-.4l5-5.5c.2-.2.6-.2.8,0h0ZM1286.7,3448.1c1,.5,1.9,1.1,2.8,1.8.2.2.3.6,0,.8l-5.5,5c-.2.2-.5,0-.4-.3l2.5-7c0-.3.5-.4.7-.3h0ZM1280.4,3446.2c1.1.1,2.2.3,3.3.6.3,0,.5.4.3.7l-3.2,6.7c0,.2-.5.2-.5,0l-.4-7.4c0-.3.3-.6.6-.6h-.1ZM1284.1,3462.8c0,2.9-2.4,5.3-5.3,5.3s-5.3-2.4-5.3-5.3,2.4-5.3,5.3-5.3,5.3,2.4,5.3,5.3ZM1274,3446.9c1.1-.3,2.1-.5,3.3-.6.3,0,.6.2.6.6l-.4,7.4c0,.3-.4.3-.5,0l-3.2-6.7c0-.3,0-.6.3-.7h-.1ZM1268.2,3450c.9-.7,1.8-1.3,2.8-1.8.3-.2.6,0,.7.3l2.5,7c0,.3-.2.5-.4.3l-5.5-5c-.2-.2-.2-.6,0-.8h0ZM1264.1,3455c.5-1,1.1-1.9,1.8-2.8.2-.2.6-.3.8,0l5,5.5c.2.2,0,.5-.3.4l-7-2.5c-.3-.1-.4-.5-.3-.7h0ZM1262.9,3458c0-.3.4-.5.7-.3l6.7,3.2c.2.1.2.5,0,.5l-7.4.4c-.3,0-.6-.3-.6-.6,0-1.1.3-2.2.6-3.3h0c0,.1,0,.1,0,.1ZM1262.9,3467.7c-.3-1.1-.5-2.1-.6-3.3,0-.3.2-.6.6-.6l7.4.4c.3,0,.3.4,0,.5l-6.7,3.2c-.3.1-.6,0-.7-.3h0c0,.1,0,.1,0,.1ZM1264.4,3469.9l7-2.5c.3,0,.5.2.3.4l-5,5.5c-.2.2-.6.2-.8,0-.7-.9-1.3-1.8-1.8-2.8-.2-.3,0-.6.3-.7h0Z" />
          <path class="csl-2" d="M1278.8,3464.8c1.1,0,2-.9,2-2s-.9-2-2-2-2,.9-2,2,.9,2,2,2Z" />
          <path class="csl-2"
            d="M1278.4,3460.1c.5.2,1,0,1.3-.5.2-.5,0-1-.5-1.3-.5-.2-1,0-1.3.5-.2.5,0,1,.5,1.3Z" />
          <path class="csl-2"
            d="M1279.2,3465.6c-.5-.2-1,0-1.3.5-.2.5,0,1,.5,1.3.5.2,1,0,1.3-.5.2-.5,0-1-.5-1.3Z" />
          <path class="csl-2"
            d="M1282.1,3463.7c.5.2,1,0,1.3-.5.2-.5,0-1-.5-1.3-.5-.2-1,0-1.3.5-.2.5,0,1,.5,1.3Z" />
          <path class="csl-2"
            d="M1274.4,3462.4c-.2.5,0,1,.5,1.3.5.2,1,0,1.3-.5.2-.5,0-1-.5-1.3-.5-.2-1,0-1.3.5Z" />
        </g>
      </g>
      <g>
        <path class="csl-2"
          d="M1188.9,3432.3c-1.5-3.5-3.6-6.6-6.3-9.3-2.7-2.7-5.8-4.8-9.3-6.3-3.6-1.5-7.4-2.3-11.4-2.3s-7.8.8-11.4,2.3c-3.5,1.5-6.6,3.6-9.3,6.3s-4.8,5.8-6.3,9.3c-1.5,3.6-2.3,7.4-2.3,11.4s.8,7.8,2.3,11.4c1.5,3.5,3.6,6.6,6.3,9.3,2.7,2.7,5.8,4.8,9.3,6.3,3.6,1.5,7.4,2.3,11.4,2.3s7.8-.8,11.4-2.3c3.5-1.5,6.6-3.6,9.3-6.3s4.8-5.8,6.3-9.3c1.5-3.6,2.3-7.4,2.3-11.4s-.8-7.8-2.3-11.4ZM1182.9,3443.6c0,5.6-2.2,10.8-6.1,14.8s-9.2,6.1-14.8,6.1-10.8-2.2-14.8-6.1-6.1-9.2-6.1-14.8,2.2-10.8,6.1-14.8c3.9-3.9,9.2-6.1,14.8-6.1s10.8,2.2,14.8,6.1c3.9,3.9,6.1,9.2,6.1,14.8Z" />
        <g>
          <path class="csl-2"
            d="M1162,3463.7c11.1,0,20.1-9,20.1-20.1s-9-20.1-20.1-20.1-20.1,9-20.1,20.1,9,20.1,20.1,20.1ZM1154.2,3458.3c-1-.5-1.9-1.1-2.8-1.8-.2-.2-.3-.6,0-.8l5.5-5c.2-.2.5,0,.4.3l-2.5,7c0,.3-.5.4-.7.3h0ZM1160.4,3460.2c-1.1-.1-2.2-.3-3.3-.6-.3,0-.5-.4-.3-.7l3.2-6.7c0-.2.5-.2.5,0l.4,7.4c0,.3-.3.6-.6.6h.1ZM1166.9,3459.6c-1.1.3-2.1.5-3.3.6-.3,0-.6-.2-.6-.6l.4-7.4c0-.3.4-.3.5,0l3.2,6.7c0,.3,0,.6-.3.7h.1ZM1172.6,3456.5c-.9.7-1.8,1.3-2.8,1.8-.3.2-.6,0-.7-.3l-2.5-7c0-.3.2-.5.4-.3l5.5,5c.2.2.2.6,0,.8h0ZM1176.7,3451.5c-.5,1-1.1,1.9-1.8,2.8-.2.2-.6.3-.8,0l-5-5.5c-.2-.2,0-.5.3-.4l7,2.5c.3.1.4.5.3.7h0ZM1177.9,3448.5c0,.3-.4.5-.7.3l-6.7-3.2c-.2-.1-.2-.5,0-.5l7.4-.4c.3,0,.6.3.6.6,0,1.1-.3,2.2-.6,3.3h0c0-.1,0-.1,0-.1ZM1177.9,3438.8c.3,1.1.5,2.1.6,3.3,0,.3-.2.6-.6.6l-7.4-.4c-.3,0-.3-.4,0-.5l6.7-3.2c.3-.1.6,0,.7.3h0c0-.1,0-.1,0-.1ZM1174.9,3433c.7.9,1.3,1.8,1.8,2.8.2.3,0,.6-.3.7l-7,2.5c-.3,0-.5-.2-.3-.4l5-5.5c.2-.2.6-.2.8,0h0ZM1169.8,3428.9c1,.5,1.9,1.1,2.8,1.8.2.2.3.6,0,.8l-5.5,5c-.2.2-.5,0-.4-.3l2.5-7c0-.3.5-.4.7-.3h0ZM1163.6,3427c1.1.1,2.2.3,3.3.6.3,0,.5.4.3.7l-3.2,6.7c0,.2-.5.2-.5,0l-.4-7.4c0-.3.3-.6.6-.6h-.1ZM1167.3,3443.6c0,2.9-2.4,5.3-5.3,5.3s-5.3-2.4-5.3-5.3,2.4-5.3,5.3-5.3,5.3,2.4,5.3,5.3ZM1157.1,3427.7c1.1-.3,2.1-.5,3.3-.6.3,0,.6.2.6.6l-.4,7.4c0,.3-.4.3-.5,0l-3.2-6.7c0-.3,0-.6.3-.7h-.1ZM1151.4,3430.8c.9-.7,1.8-1.3,2.8-1.8.3-.2.6,0,.7.3l2.5,7c0,.3-.2.5-.4.3l-5.5-5c-.2-.2-.2-.6,0-.8h0ZM1147.3,3435.8c.5-1,1.1-1.9,1.8-2.8.2-.2.6-.3.8,0l5,5.5c.2.2,0,.5-.3.4l-7-2.5c-.3-.1-.4-.5-.3-.7h0ZM1146.1,3438.8c0-.3.4-.5.7-.3l6.7,3.2c.2.1.2.5,0,.5l-7.4.4c-.3,0-.6-.3-.6-.6,0-1.1.3-2.2.6-3.3h0c0,.1,0,.1,0,.1ZM1146.1,3448.5c-.3-1.1-.5-2.1-.6-3.3,0-.3.2-.6.6-.6l7.4.4c.3,0,.3.4,0,.5l-6.7,3.2c-.3.1-.6,0-.7-.3h0c0,.1,0,.1,0,.1ZM1147.6,3450.7l7-2.5c.3,0,.5.2.3.4l-5,5.5c-.2.2-.6.2-.8,0-.7-.9-1.3-1.8-1.8-2.8-.2-.3,0-.6.3-.7h0Z" />
          <path class="csl-2" d="M1162,3445.6c1.1,0,2-.9,2-2s-.9-2-2-2-2,.9-2,2,.9,2,2,2Z" />
          <path class="csl-2"
            d="M1161.6,3440.9c.5.2,1,0,1.3-.5.2-.5,0-1-.5-1.3-.5-.2-1,0-1.3.5-.2.5,0,1,.5,1.3Z" />
          <path class="csl-2"
            d="M1162.4,3446.4c-.5-.2-1,0-1.3.5-.2.5,0,1,.5,1.3.5.2,1,0,1.3-.5.2-.5,0-1-.5-1.3Z" />
          <path class="csl-2"
            d="M1165.2,3444.5c.5.2,1,0,1.3-.5.2-.5,0-1-.5-1.3-.5-.2-1,0-1.3.5-.2.5,0,1,.5,1.3Z" />
          <path class="csl-2"
            d="M1157.5,3443.2c-.2.5,0,1,.5,1.3.5.2,1,0,1.3-.5.2-.5,0-1-.5-1.3-.5-.2-1,0-1.3.5Z" />
        </g>
      </g>
    </g>
    <g id="Calque_2-2-2" data-name="Calque 2-2">
      <g>
        <path class="csl-7"
          d="M1508.1,3389.5c-36.4-51.6-87.3-96.2-155.5-136.5-117.1-69.1-267.9-114.2-413.7-157.8-131.7-39.4-256.1-76.6-347.7-127.7-112.9-63-129.3-122.5-131-167.4-3.1-80.8,33-135.7,120.7-183.5,90.8-49.6,223.1-81.1,351-111.6,138.3-33,281.3-67.1,392.3-126.9,65.4-35.3,114.2-76.1,149.1-125,40.5-56.6,61-122.9,61-197.2,0-145.7-65.3-249.8-194.1-309.3-101.7-47-231.1-60.8-356.3-74.1-116.3-12.4-236.5-25.2-318.9-64.1-79.7-37.7-113.7-94.4-113.7-189.5s17-71.4,50.4-114.4c33.9-43.5,84.5-90.9,150.4-141,112.6-85.6,248.2-163.4,364.7-228.3,3-1.2,6-2.4,8.9-3.7,31.3-13.2,60.7-30,87.8-50.2,8.3-6.2,16.4-12.7,24.2-19.4,7.9-6.8,15.6-14,23.1-21.5,39-39,69.6-84.5,91.1-135.1,22.2-52.4,33.4-108.1,33.4-165.5s-11.2-113-33.4-165.5c-21.4-50.6-52-96.1-91.1-135.1-4.6-4.6-9.3-9.1-14.1-13.5-.9-.8-1.8-1.7-2.7-2.5-9.8-8.8-20-17.1-30.5-24.9,0,0,0,0,0,0C1149.8,142.5,1105.8,76,1081.9,0h-155.3c9.1,39.8,22.4,78.3,39.5,115-2,0-3.9,0-5.9,0-57.3,0-113,11.2-165.5,33.4-50.6,21.4-96.1,52-135.1,91.1s-69.6,84.4-91,135.1c-22.2,52.4-33.4,108.1-33.4,165.5s11.2,113,33.4,165.5c21.4,50.6,52,96.1,91,135.1s84.5,69.6,135.1,91c6.3,2.7,12.7,5.2,19.2,7.6-52.7,33.3-104.7,68.6-152.7,105-77.3,58.8-135.6,113.8-178,168.3-54.4,69.9-82,139.4-82,206.6,0,153.1,67.2,262.5,199.6,325.1,105.3,49.8,238.4,64,367.1,77.7,113.1,12,230,24.5,309.3,61.1,75,34.7,107,86.4,107,173.1s-40.5,141.2-131.3,190.2c-93.7,50.5-226.9,82.3-355.8,113-137.5,32.8-279.6,66.7-388,125.8-64.3,35.1-111.7,75.8-145,124.6-38.5,56.4-56.6,122.4-53.8,196.3,2.5,65.3,24.4,124.7,65,176.6,34.1,43.5,80.8,81.4,142.8,116,106,59.2,244.2,100.5,377.9,140.4,317.9,95,526.3,171.1,526.3,356.1s-42.6,182.2-130.3,252.9c-80.8,65.3-200,119.7-354,161.8-289.9,79.2-631.9,97.4-858.2,109.4-30.1,1.6-54.2,3.3-79.5,4.8v149c24.8-1.5,57.7-2.4,87.5-4,114.8-6.1,257.6-13.7,413-30.2,185.8-19.8,341.7-47.4,476.8-84.3,81.9-22.4,156.2-48.5,220.9-77.5,73.1-32.9,136.3-70.6,187.9-112.3,58.5-47.2,103.9-100.9,134.9-159.4,33.9-64.1,51.2-134.9,51.2-210.3s-21.6-145.2-64.1-205.5h0ZM685.2,540c0-151.6,123.4-275,275-275s115.7,19.4,161,52.2c0,0,0,0,0,0,8.7,6.3,17.1,13.1,24.9,20.4,0,0,0,0,0,0,54.7,50.3,89,122.4,89,202.3s-41.2,165.9-105.3,216.2c0,0,0,0,0,0-22.8,17.9-48.5,32.3-76.2,42.4-29.2,10.6-60.7,16.4-93.5,16.4-151.6,0-275-123.4-275-275h0Z" />
        <path class="csl-7"
          d="M1146.2,337.6c-8.5-6.6-16.8-13.5-24.9-20.4,8.7,6.3,17.1,13.1,24.9,20.4Z" />
        <path class="csl-7" d="M1246.8,225.7l-.2.3c-.9-.8-1.8-1.7-2.7-2.5,1,.7,1.9,1.5,2.9,2.2h0Z" />
      </g>
    </g>
  </g>
</svg>