<?xml version="1.0" encoding="UTF-8"?>
<svg id="Calque_1" data-name="Calque 1" xmlns="http://www.w3.org/2000/svg" version="1.1" xmlns:xlink="http://www.w3.org/1999/xlink" viewBox="0 0 1472.3 624.8">
  <defs>
    <style>
      .cls-1 {
        fill: #d71921;
      }

      .cls-1, .cls-2, .cls-3, .cls-4, .cls-5, .cls-6, .cls-7, .cls-8, .cls-9, .cls-10 {
        stroke-width: 0px;
      }

      .cls-2 {
        fill: #ed3029;
      }

      .cls-3 {
        fill: #3b3a3c;
      }

      .cls-11, .cls-5, .cls-7 {
        isolation: isolate;
      }

      .cls-4 {
        fill: #c3161c;
      }

      .cls-12 {
        stroke-width: 4.7px;
      }

      .cls-12, .cls-13 {
        fill: none;
        stroke: #323031;
        stroke-miterlimit: 10;
      }

      .cls-13 {
        stroke-width: 6.3px;
      }

      .cls-5 {
        fill: url(#Dégradé_sans_nom);
      }

      .cls-5, .cls-7 {
        mix-blend-mode: multiply;
        opacity: .4;
      }

      .cls-6 {
        fill: #4d4d4f;
      }

      .cls-7 {
        fill: url(#Dégradé_sans_nom_2);
      }

      .cls-8 {
        fill: #404041;
      }

      .cls-9 {
        fill: #323031;
      }

      .cls-10 {
        fill: #d0d2d3;
      }
    </style>
    <linearGradient id="Dégradé_sans_nom" data-name="Dégradé sans nom" x1="-2269.5" y1="-459" x2="-2269.5" y2="-454.3" gradientTransform="translate(422.5 -2265.6) rotate(-90)" gradientUnits="userSpaceOnUse">
      <stop offset="0" stop-color="#231f20"/>
      <stop offset="1" stop-color="#231f20" stop-opacity="0"/>
    </linearGradient>
    <linearGradient id="Dégradé_sans_nom_2" data-name="Dégradé sans nom 2" x1="-2269.5" y1="3236.6" x2="-2269.5" y2="3241.2" gradientTransform="translate(3273 -2265.6) rotate(-90) scale(1 -1)" gradientUnits="userSpaceOnUse">
      <stop offset="0" stop-color="#231f20"/>
      <stop offset="1" stop-color="#231f20" stop-opacity="0"/>
    </linearGradient>
  </defs>
  <g class="cls-11">
    <g id="Calque_2" data-name="Calque 2">
      <g id="Calque_1-2" data-name="Calque 1-2">
        <g>
          <g>
            <rect class="cls-8" x="-18.3" y="45.2" width="9.5" height="15.5"/>
            <path class="cls-12" d="M-28.4,1.1c6.6,4,19.5,25.8,19.5,59.5"/>
            <line class="cls-13" x1="-26.8" y1="60.8" x2="-11.3" y2="48.9"/>
          </g>
          <g>
            <rect class="cls-8" x="8.8" y="45.2" width="9.5" height="15.5"/>
            <path class="cls-12" d="M28.4,1.1c-6.6,4-19.5,25.8-19.5,59.5"/>
            <line class="cls-13" x1="26.8" y1="60.8" x2="11.3" y2="48.9"/>
          </g>
          <g>
            <path class="cls-4" d="M-27.6,14.6C-27.6,4.4-20.9.4-15.1-1s-20.2-24-20.2-2.3,7.7,17.9,7.7,17.9h0Z"/>
            <g>
              <path class="cls-10" d="M-33.2-8.4c0,5.4,6,13.5,6,19.5v5h-9.3V-8.4h3.3,0Z"/>
              <path class="cls-5" d="M-36.5,16.2V-8.4h3.3c0,1.7.6,6.5,1.4,8.1v16.5h-4.7Z"/>
            </g>
          </g>
          <g>
            <path class="cls-4" d="M27.6,14.6C27.6,4.4,20.9.4,15.1-1s20.2-24,20.2-2.3-7.7,17.9-7.7,17.9Z"/>
            <g>
              <path class="cls-10" d="M33.2-8.4c0,5.4-6,13.5-6,19.5v5h9.3V-8.4h-3.3Z"/>
              <path class="cls-7" d="M36.5,16.2V-8.4h-3.3c0,1.7-.6,6.5-1.4,8.1v16.5h4.7Z"/>
            </g>
          </g>
          <g>
            <polygon class="cls-6" points="0 68.2 0 58.1 34.9 59.5 34.9 68.2 0 68.2"/>
            <polygon class="cls-8" points="0 65.9 0 62.2 34.9 63 34.9 65.9 0 65.9"/>
            <rect class="cls-9" x="0" y="65.9" width="19.6" height="4.3"/>
            <polygon class="cls-6" points="0 68.2 0 58.1 -34.9 59.5 -34.9 68.2 0 68.2"/>
            <polygon class="cls-8" points="0 65.9 0 62.2 -34.9 63 -34.9 65.9 0 65.9"/>
            <rect class="cls-9" x="-19.6" y="65.9" width="19.6" height="4.3"/>
          </g>
          <polygon class="cls-8" points="32.3 95.3 32.3 112.3 0 112.3 0 85 16.1 95.3 32.3 95.3"/>
          <polygon class="cls-8" points="-32.3 95.3 -32.3 112.3 0 112.3 0 85 -16.1 95.3 -32.3 95.3"/>
          <path class="cls-3" d="M46.8,77.8s.9-5.6.9-13.9-.9-13.9-.9-13.9c-.3-1.9-2.1-3.5-4.1-3.5h-12.7c-1.9,0-3.5,1.6-3.5,3.5v27.8c0,1.9,1.6,3.5,3.5,3.5h12.7c1.9,0,3.8-1.6,4.1-3.5h0Z"/>
          <path class="cls-8" d="M30,81.3h12.7c.8,0,1.6-.3,2.3-.7,0-.3.2-.5.2-.8,0,0,1-6.3,1-15.9s-1-15.9-1-15.9c0-.3-.1-.5-.2-.8-.7-.5-1.5-.7-2.3-.7h-12.7c-1.9,0-3.5,1.6-3.5,3.5v27.8c0,1.9,1.6,3.5,3.5,3.5h0Z"/>
          <path class="cls-2" d="M32.3,112.3c0,3.3,2.6,3.4,2.6,0s3.2-3.3,3.2-7.4-3.7-.3-4.1-6.7-.7-14.2-.7-14.2c0,0-3.5-.5-3.5,3s2.4,4.6,2.4,8.4v17Z"/>
          <path class="cls-3" d="M-46.8,77.8s-.9-5.6-.9-13.9.9-13.9.9-13.9c.3-1.9,2.1-3.5,4.1-3.5h12.7c1.9,0,3.5,1.6,3.5,3.5v27.8c0,1.9-1.6,3.5-3.5,3.5h-12.7c-1.9,0-3.8-1.6-4.1-3.5h0Z"/>
          <path class="cls-8" d="M-30,81.3h-12.7c-.8,0-1.6-.3-2.3-.7,0-.3-.2-.5-.2-.8,0,0-1-6.3-1-15.9s1-15.9,1-15.9c0-.3.1-.5.2-.8.7-.5,1.5-.7,2.3-.7h12.7c1.9,0,3.5,1.6,3.5,3.5v27.8c0,1.9-1.6,3.5-3.5,3.5h0Z"/>
          <path class="cls-2" d="M-32.3,112.3c0,3.3-2.6,3.4-2.6,0s-3.2-3.3-3.2-7.4,3.7-.3,4.1-6.7.7-14.2.7-14.2c0,0,3.5-.5,3.5,3s-2.4,4.6-2.4,8.4v17Z"/>
          <path class="cls-2" d="M-35-103.2v18.6c0,37.7-4.4,55.2-4.4,69.3s3.1,12,14.4,13.4C-13.7-.6-12.7,30.1-11.6,46.2c1.1,16.1,3.8,50.6,4.3,59.6.5,9,2.5,12.1,7.3,12.1s6.8-3.1,7.3-12.1c.5-9,3.2-43.5,4.3-59.6C12.7,30.1,13.7-.6,25.1-1.9c11.2-1.3,14.4-6.5,14.4-13.4,0-14-4.4-31.6-4.4-69.3v-18.6H-35h0Z"/>
          <path class="cls-9" d="M-9.6-18.3c0,10,1.4,31.1,8.8,31.1H.7c7.4,0,8.8-21.2,8.8-31.1H-9.6Z"/>
          <path class="cls-1" d="M0-100.9S-9.6-50-12.2-27c-1,8.4.5,11,5.2,11H7c4.7,0,6.2-2.7,5.2-11C9.6-50,0-100.9,0-100.9H0Z"/>
          <path class="cls-9" d="M0-17.3c-1.6,0-3-2.2-3-4.9C-3-26.4-1.6-27,0-27s3,.6,3,4.9S1.6-17.3,0-17.3Z"/>
          <path class="cls-4" d="M24.1-68.9l-7.7,39.7c-.3,1.6.7,2.4,2.2,1.9l19-6.8c1.5-.5,2.9-2.3,3-3.9l3.1-30.9c.2-1.6-1-2.9-2.6-2.9h-13.6c-1.6,0-3.2,1.3-3.5,2.9h0ZM-16.4-29.2l-7.7-39.7c-.3-1.6-1.9-2.9-3.5-2.9h-13.6c-1.6,0-2.8,1.3-2.6,2.9l3.1,30.9c.2,1.6,1.5,3.4,3,3.9l19,6.8c1.5.5,2.5-.3,2.2-1.9h0Z"/>
          <rect class="cls-9" x="-32" y="-101.4" width="64.2" height="7.7"/>
          <g>
            <path class="cls-3" d="M49.1-77.3s.9-5.6.9-13.9-.9-13.9-.9-13.9c-.3-1.9-2.1-3.5-4.1-3.5h-12.7c-1.9,0-3.5,1.6-3.5,3.5v27.8c0,1.9,1.6,3.5,3.5,3.5h12.7c1.9,0,3.8-1.6,4.1-3.5h0Z"/>
            <path class="cls-8" d="M32.3-73.8h12.7c.8,0,1.6-.3,2.3-.7,0-.3.2-.5.2-.8,0,0,1-6.3,1-15.9s-1-15.9-1-15.9c0-.3-.1-.5-.2-.8-.7-.5-1.5-.7-2.3-.7h-12.7c-1.9,0-3.5,1.6-3.5,3.5v27.8c0,1.9,1.6,3.5,3.5,3.5Z"/>
          </g>
          <g>
            <path class="cls-3" d="M-49.1-77.3s-.9-5.6-.9-13.9.9-13.9.9-13.9c.3-1.9,2.1-3.5,4.1-3.5h12.7c1.9,0,3.5,1.6,3.5,3.5v27.8c0,1.9-1.6,3.5-3.5,3.5h-12.7c-1.9,0-3.8-1.6-4.1-3.5h0Z"/>
            <path class="cls-8" d="M-32.3-73.8h-12.7c-.8,0-1.6-.3-2.3-.7,0-.3-.2-.5-.2-.8,0,0-1-6.3-1-15.9s1-15.9,1-15.9c0-.3.1-.5.2-.8.7-.5,1.5-.7,2.3-.7h12.7c1.9,0,3.5,1.6,3.5,3.5v27.8c0,1.9-1.6,3.5-3.5,3.5Z"/>
          </g>
          <g>
            <rect class="cls-9" x="-27.1" y="-115" width="54.2" height="20.4"/>
            <path class="cls-2" d="M28.1-117.8v26.1h-1v-26.1h1Z"/>
            <path class="cls-2" d="M-28.1-117.8v26.1h1v-26.1h-1Z"/>
            <path class="cls-4" d="M-27.1-94.6s8.1,2.9,27.1,2.9,27.1-2.9,27.1-2.9"/>
          </g>
        </g>
      </g>
    </g>
  </g>
</svg>