<?xml version="1.0" encoding="UTF-8"?>
<svg xmlns="http://www.w3.org/2000/svg" xmlns:xlink="http://www.w3.org/1999/xlink" viewBox="0 0 1472.31 624.77">
  <defs>
    <style>
      .cls-1 {
        fill: url(#linear-gradient);
      }

      .cls-1, .cls-2, .cls-3, .cls-4, .cls-5, .cls-6, .cls-7, .cls-8, .cls-9, .cls-10 {
        stroke-width: 0px;
      }

      .cls-1, .cls-10 {
        mix-blend-mode: multiply;
        opacity: .4;
      }

      .cls-2 {
        fill: #d71921;
      }

      .cls-3 {
        fill: #ed3029;
      }

      .cls-4 {
        fill: #3b3a3c;
      }

      .cls-11 {
        isolation: isolate;
      }

      .cls-5 {
        fill: #c3161c;
      }

      .cls-6 {
        fill: #4d4d4f;
      }

      .cls-12 {
        stroke-width: 6.31px;
      }

      .cls-12, .cls-13 {
        fill: none;
        stroke: #323031;
        stroke-miterlimit: 10;
      }

      .cls-13 {
        stroke-width: 4.73px;
      }

      .cls-7 {
        fill: #404041;
      }

      .cls-8 {
        fill: #323031;
      }

      .cls-9 {
        fill: #d0d2d3;
      }

      .cls-10 {
        fill: url(#linear-gradient-2);
      }
    </style>
    <linearGradient id="linear-gradient" x1="-2156.4" y1="540.32" x2="-2156.4" y2="511.12" gradientTransform="translate(-1395.8) rotate(-180) scale(1 -1)" gradientUnits="userSpaceOnUse">
      <stop offset="0" stop-color="#231f20"/>
      <stop offset="1" stop-color="#231f20" stop-opacity="0"/>
    </linearGradient>
    <linearGradient id="linear-gradient-2" x1="-2156.4" y1="-1228.96" x2="-2156.4" y2="-1258.16" gradientTransform="translate(-1395.8 -1144.51) rotate(-180)" xlink:href="#linear-gradient"/>
  </defs>
  <g class="cls-11">
    <g id="Calque_2" data-name="Calque 2">
      <g id="Calque_1-2" data-name="Calque 1">
        <g>
          <g>
            <rect class="cls-7" x="1018.24" y="367.63" width="96.75" height="59.12"/>
            <path class="cls-13" d="M743.1,489.64c25.1-41.27,161.06-122.02,371.89-122.02"/>
            <line class="cls-12" x1="1116.01" y1="479.71" x2="1041.8" y2="382.69"/>
          </g>
          <g>
            <rect class="cls-7" x="1018.24" y="198.02" width="96.75" height="59.12"/>
            <path class="cls-13" d="M743.1,135.13c25.1,41.27,161.06,122.02,371.89,122.02"/>
            <line class="cls-12" x1="1116.01" y1="145.06" x2="1041.8" y2="242.08"/>
          </g>
          <g>
            <path class="cls-5" d="M827.58,484.66c-63.92,0-89.05-41.6-97.79-78.06-8.74-36.46-149.65,126.3-14.2,126.3s111.99-48.25,111.99-48.25Z"/>
            <g>
              <path class="cls-9" d="M683.9,519.68c33.46,0,84.32-37.76,122.1-37.76h31.3v58.41h-153.4v-20.65Z"/>
              <path class="cls-1" d="M837.3,540.32h-153.4v-20.65c10.31,0,40.47-3.59,50.56-8.56h102.84v29.2Z"/>
            </g>
          </g>
          <g>
            <path class="cls-5" d="M827.58,140.1c-63.92,0-89.05,41.6-97.79,78.06-8.74,36.46-149.65-126.3-14.2-126.3s111.99,48.24,111.99,48.24Z"/>
            <g>
              <path class="cls-9" d="M683.9,105.09c33.46,0,84.32,37.76,122.1,37.76h31.3v-58.41h-153.4v20.65Z"/>
              <path class="cls-10" d="M837.3,84.45h-153.4v20.65c10.31,0,40.47,3.59,50.56,8.56h102.84v-29.2Z"/>
            </g>
          </g>
          <g>
            <polygon class="cls-6" points="1162.26 312.38 1098.91 312.38 1108.05 94.31 1162.26 94.31 1162.26 312.38"/>
            <polygon class="cls-7" points="1147.64 312.38 1124.5 312.38 1129.98 94.31 1147.64 94.31 1147.64 312.38"/>
            <rect class="cls-8" x="1147.64" y="189.95" width="26.8" height="122.44"/>
            <polygon class="cls-6" points="1162.26 312.38 1098.91 312.38 1108.05 530.45 1162.26 530.45 1162.26 312.38"/>
            <polygon class="cls-7" points="1147.64 312.38 1124.5 312.38 1129.98 530.45 1147.64 530.45 1147.64 312.38"/>
            <rect class="cls-8" x="1147.64" y="312.38" width="26.8" height="122.44"/>
          </g>
          <polygon class="cls-7" points="1331.44 110.76 1437.72 110.76 1437.72 312.38 1267.48 312.38 1331.44 211.57 1331.44 110.76"/>
          <polygon class="cls-7" points="1331.44 514.01 1437.72 514.01 1437.72 312.38 1267.48 312.38 1331.44 413.2 1331.44 514.01"/>
          <path class="cls-4" d="M1222.17,20.25s-34.72-5.63-87.01-5.63-87.01,5.63-87.01,5.63c-11.9,1.93-21.65,13.38-21.65,25.44v79.35c0,12.06,9.87,21.93,21.93,21.93h173.45c12.06,0,21.93-9.87,21.93-21.93V45.68c0-12.06-9.74-23.51-21.65-25.44Z"/>
          <path class="cls-7" d="M1243.81,125.03V45.68c0-5.07-1.74-10.02-4.61-14.21-1.6-.59-3.25-1.04-4.95-1.31,0,0-39.54-6.41-99.09-6.41s-99.1,6.41-99.1,6.41c-1.69.27-3.35.72-4.95,1.31-2.88,4.19-4.61,9.14-4.61,14.21v79.35c0,12.06,9.87,21.93,21.93,21.93h173.45c12.06,0,21.93-9.87,21.93-21.93Z"/>
          <path class="cls-3" d="M1437.72,110.76c20.73,0,21.24-16.45,0-16.45-28.25,0-20.32-19.74-45.99-19.74s-2.1,23.11-42.16,25.68c-40.06,2.57-88.85,4.11-88.85,4.11,0,0-3.08,21.57,18.49,21.57s28.96-15.17,52.23-15.17h106.28Z"/>
          <path class="cls-4" d="M1222.17,604.52s-34.72,5.63-87.01,5.63-87.01-5.63-87.01-5.63c-11.9-1.93-21.65-13.38-21.65-25.44v-79.35c0-12.06,9.87-21.93,21.93-21.93h173.45c12.06,0,21.93,9.87,21.93,21.93v79.35c0,12.06-9.74,23.51-21.65,25.44Z"/>
          <path class="cls-7" d="M1243.81,499.73v79.35c0,5.07-1.74,10.02-4.61,14.21-1.6.59-3.25,1.04-4.95,1.31,0,0-39.54,6.41-99.09,6.41s-99.1-6.41-99.1-6.41c-1.69-.27-3.35-.72-4.95-1.31-2.88-4.19-4.61-9.14-4.61-14.21v-79.35c0-12.06,9.87-21.93,21.93-21.93h173.45c12.06,0,21.93,9.87,21.93,21.93Z"/>
          <path class="cls-3" d="M1437.72,514.01c20.73,0,21.24,16.45,0,16.45-28.25,0-20.32,19.74-45.99,19.74s-2.1-23.11-42.16-25.68c-40.06-2.57-88.85-4.11-88.85-4.11,0,0-3.08-21.57,18.49-21.57s28.96,15.17,52.23,15.17h106.28Z"/>
          <path class="cls-3" d="M91.58,531.06h116.34c235.5,0,345.14,27.53,432.86,27.53,42.64,0,75.05-19.51,83.45-89.66,8.46-70.73,199.94-77.11,300.34-84,100.4-6.89,316.17-23.82,372.21-26.86,56.04-3.05,75.53-15.84,75.53-45.68s-19.49-42.64-75.53-45.68c-56.04-3.05-271.81-19.97-372.21-26.86-100.4-6.89-291.87-13.27-300.34-84-8.4-70.16-40.81-89.66-83.45-89.66-87.71,0-197.36,27.53-432.86,27.53h-116.34v437.36Z"/>
          <path class="cls-8" d="M621.71,372.11c62.41,0,194.58-8.81,194.58-55.1v-9.26c0-46.28-132.17-55.1-194.58-55.1v119.46Z"/>
          <path class="cls-2" d="M105.47,312.38s318.02,59.9,461.94,76.29c52.34,5.96,69-3.28,69-32.77v-87.03c0-29.49-16.66-38.73-69-32.77-143.92,16.39-461.94,76.29-461.94,76.29Z"/>
          <path class="cls-8" d="M628.02,312.38c0,10.22-13.57,18.5-30.31,18.5-26.63,0-30.31-8.28-30.31-18.5s3.68-18.5,30.31-18.5c16.74,0,30.31,8.28,30.31,18.5Z"/>
          <path class="cls-5" d="M305.39,161.78l248.28,47.9c9.87,1.9,15.17-4.28,11.79-13.74l-42.52-118.89c-3.38-9.46-14.33-18.04-24.33-19.05l-192.98-19.59c-10-1.02-18.18,6.38-18.18,16.43v85.22c0,10.05,8.08,19.83,17.94,21.74ZM553.66,415.09l-248.28,47.9c-9.87,1.9-17.94,11.68-17.94,21.74v85.22c0,10.05,8.18,17.44,18.18,16.43l192.98-19.6c10-1.01,20.95-9.59,24.33-19.05l42.52-118.89c3.38-9.46-1.92-15.65-11.79-13.74Z"/>
          <rect class="cls-8" x="102.5" y="110.76" width="47.83" height="401.26"/>
          <g>
            <path class="cls-4" d="M253.2,5.63S218.48,0,166.19,0s-87.01,5.63-87.01,5.63c-11.9,1.93-21.65,13.38-21.65,25.44v79.35c0,12.06,9.87,21.93,21.93,21.93h173.45c12.06,0,21.93-9.87,21.93-21.93V31.07c0-12.06-9.74-23.51-21.65-25.44Z"/>
            <path class="cls-7" d="M274.84,110.42V31.07c0-5.07-1.74-10.02-4.61-14.21-1.6-.59-3.25-1.04-4.95-1.31,0,0-39.54-6.41-99.1-6.41s-99.09,6.41-99.09,6.41c-1.69.27-3.35.72-4.95,1.31-2.88,4.19-4.61,9.14-4.61,14.21v79.35c0,12.06,9.87,21.93,21.93,21.93h173.45c12.06,0,21.93-9.87,21.93-21.93Z"/>
          </g>
          <g>
            <path class="cls-4" d="M253.2,619.14s-34.72,5.63-87.01,5.63-87.01-5.63-87.01-5.63c-11.9-1.93-21.65-13.38-21.65-25.44v-79.35c0-12.06,9.87-21.93,21.93-21.93h173.45c12.06,0,21.93,9.87,21.93,21.93v79.35c0,12.06-9.74,23.51-21.65,25.44Z"/>
            <path class="cls-7" d="M274.84,514.35v79.35c0,5.07-1.74,10.02-4.61,14.21-1.6.59-3.25,1.04-4.95,1.31,0,0-39.54,6.41-99.1,6.41s-99.09-6.41-99.09-6.41c-1.69-.27-3.35-.72-4.95-1.31-2.88-4.19-4.61-9.14-4.61-14.21v-79.35c0-12.06,9.87-21.93,21.93-21.93h173.45c12.06,0,21.93,9.87,21.93,21.93Z"/>
          </g>
          <g>
            <rect class="cls-8" x="17.9" y="143.11" width="127.16" height="338.73"/>
            <path class="cls-3" d="M0,136.94h162.96v6.17H0v-6.17Z"/>
            <path class="cls-3" d="M0,487.83h162.96v-6.17H0v6.17Z"/>
            <path class="cls-5" d="M145.06,481.81s17.9-50.56,17.9-169.35-17.9-169.35-17.9-169.35"/>
          </g>
        </g>
      </g>
    </g>
  </g>
</svg>