<?xml version="1.0" encoding="UTF-8"?>
<svg id="Calque_1" data-name="Calque 1" xmlns="http://www.w3.org/2000/svg" viewBox="0 0 189.8 162.79">
  <defs>
    <style>
      .cls-1 {
        fill: #000;
      }

      .cls-1, .cls-2 {
        stroke-width: 0px;
      }

      .cls-2 {
        fill: #fff;
      }
    </style>
  </defs>
  <path class="cls-1" d="M69.88,148.69c-2.58-.21-5.16-.41-7.73-.62-3.49-.29-4.31-1.24-5.38-4.54-2.13-6.53-4.46-12.99-6.78-19.45-4.15-11.55-7.98-23.21-10.39-35.26-1.37-6.84-2.61-13.72-3.6-20.63-1.27-8.88-4.28-17.1-8.55-24.91-3.47-6.36-7.02-12.68-10.48-19.04-.96-1.76-1.86-3.57-2.56-5.45-1.29-3.48.2-5.57,3.86-5.08,5.86.79,11.75,1.61,17.5,2.98,10.76,2.56,20.65,7.48,30.63,12.11,10.12,4.69,20.14,9.63,30.46,13.84,8.36,3.4,17.1,5.87,25.66,8.76.8.27,1.6.58,2.34.97,3.21,1.7,4.35,5.06,2.88,8.37-1.23,2.77-3.42,4.68-5.87,6.31-5.89,3.91-12.3,6.12-19.45,5.65-4.53-.3-8.87-1.51-13.01-3.3-5.78-2.49-11.51-5.09-17.24-7.68-2.77-1.24-5.62-2.02-8.63-1.2-5.13,1.41-7.78,5.47-6.53,11,1.7,7.51,3.71,14.98,6,22.33,1.67,5.37,6.48,7.17,11.58,4.73,1.99-.95,3.86-2.2,5.69-3.45,6.86-4.7,14.31-6.42,22.46-4.45,15.99,3.86,31.96,7.76,47.93,11.7,4.93,1.22,9.78,2.73,14.71,3.94,7.32,1.79,8.9,6.66,9.41,11.75.25,2.57.44,5.15.65,7.73v9.85c-.11.67-.25,1.34-.32,2.02-.48,5.03-2.65,7.91-7.51,9.26-2.68.74-5.5.99-8.27,1.37-1.62.22-3.26.27-4.89.39h-35.29c-4.05-.08-8.09-.21-12.14-.23-2.1-.01-4.2.15-6.3.23h-30.84ZM17.29,16.54c-.09.17-.19.34-.28.52.42.96.77,1.95,1.27,2.87,2.5,4.66,4.89,9.39,7.58,13.94,7.38,12.48,12.58,25.63,14.29,40.19,1.5,12.78,4.62,25.28,8.76,37.48,3.65,10.75,7.41,21.48,11.18,32.19.17.49.91,1.07,1.43,1.12,3.16.3,6.33.61,9.5.64,9.64.08,19.29.03,28.93.03,18.28,0,36.56.07,54.84-.06,3.89-.03,7.8-.62,11.64-1.33,3.57-.65,5.13-2.61,5.55-6.2.22-1.83.39-3.7.31-5.54-.25-5.55-.48-11.1-1.03-16.62-.28-2.83-1.94-4.99-4.91-5.81-1.07-.3-2.1-.74-3.17-1-20.62-5.16-41.24-10.37-61.89-15.42-6.74-1.65-12.98.06-18.74,3.76-2.18,1.4-4.31,2.9-6.61,4.07-5.98,3.02-12.79.89-15.16-4.91-3.42-8.4-5.85-17.13-6.98-26.14-.87-6.89,4.65-12.9,11.61-13.17,3.06-.12,5.82.82,8.55,2.03,6.53,2.89,13.03,5.85,19.65,8.51,8.46,3.4,16.7,2.47,24.59-1.95,2.65-1.48,5.16-3.17,6.62-5.97,1.04-1.98.49-3.74-1.53-4.76-1.08-.54-2.24-.94-3.39-1.34-9.15-3.14-18.49-5.83-27.42-9.49-10.41-4.27-20.46-9.41-30.68-14.15-10.76-4.99-21.54-9.92-33.4-11.78-3.7-.58-7.4-1.12-11.1-1.68Z"/>
  <path class="cls-2" d="M154.45,148.69c1.63-.12,3.27-.17,4.89-.39,2.77-.38,5.59-.62,8.27-1.37,4.86-1.35,7.02-4.23,7.51-9.26.06-.68.21-1.35.32-2.02v13.03h-20.98Z"/>
  <path class="cls-2" d="M100.72,148.69c2.1-.08,4.2-.25,6.3-.23,4.05.03,8.1.15,12.14.23h-18.44Z"/>
</svg>